#!OML:ASF Y:\EmotionMaleHayes\Project 1\Capture day 1\Session 1\Male1.ASF
:FULLY-SPECIFIED
:DEGREES
1037
root 37.1148 16.6707 -1.325 -53.5096 78.1712 -50.9633
lowerback 11.3667 2.03015 5.58094
upperback 6.6693 3.54063 2.52879
thorax 0.78484 2.01656 -0.862578
lowerneck -19.6533 1.91527 3.13137
upperneck 29.0305 2.71144 -1.60659
head 13.0694 1.48769 -0.663524
rclavicle -1.76421e-014 9.93923e-016
rhumerus -45.698 18.9053 -83.8157
rradius 75.7488
rwrist -10.289
rhand -14.764 -39.048
rfingers 7.12502
rthumb 11.3924 -68.7186
lclavicle -1.76421e-014 9.93923e-016
lhumerus -35.9976 -22.2436 90.0981
lradius 74.0809
lwrist 7.13909
lhand -29.9315 -33.9002
lfingers 7.12502
lthumb -3.2513 -3.94528
rfemur 12.9084 -9.44312 17.7043
rtibia 9.73248
rfoot -20.3872 -8.5283
rtoes -3.11402
lfemur -14.7188 16.4723 -0.400238
ltibia 68.1333
lfoot -4.61158 -0.0581201
ltoes -7.66639
1038
root 37.1769 16.6557 -1.31853 -53.9759 77.9404 -51.6503
lowerback 11.7083 2.07171 5.80586
upperback 6.83849 3.65502 2.72585
thorax 0.786879 2.08697 -0.804742
lowerneck -19.6132 2.001 3.79035
upperneck 28.6703 2.93794 -2.70249
head 12.9506 1.50361 -1.16385
rclavicle 3.49861e-014 5.26779e-015
rhumerus -43.4769 18.7652 -83.3559
rradius 75.5576
rwrist -10.2417
rhand -15.0143 -38.6011
rfingers 7.12502
rthumb 11.151 -68.2848
lclavicle 3.49861e-014 5.26779e-015
lhumerus -37.3324 -20.0814 90.4586
lradius 72.4303
lwrist 6.1864
lhand -30.2148 -31.4442
lfingers 7.12502
lthumb -3.52486 -1.49361
rfemur 13.0726 -9.25721 18.0683
rtibia 9.39668
rfoot -20.3712 -8.62305
rtoes -3.63552
lfemur -17.0195 17.3216 -0.194358
ltibia 68.5012
lfoot -5.70225 0.749493
ltoes -7.639
1039
root 37.2377 16.6398 -1.31765 -54.8488 77.8348 -52.7503
lowerback 12.1772 2.06635 6.03002
upperback 6.94815 3.72143 2.91202
thorax 0.656342 2.12894 -0.762454
lowerneck -19.4277 1.89646 3.54738
upperneck 27.9302 2.78951 -2.60925
head 12.5989 1.41323 -1.11101
rclavicle 1.72818e-014 3.88624e-014
rhumerus -41.276 18.5803 -82.8768
rradius 75.4115
rwrist -10.0681
rhand -14.8812 -38.6851
rfingers 7.12502
rthumb 11.2793 -68.3618
lclavicle 1.72818e-014 3.88624e-014
lhumerus -38.5892 -17.7736 90.6016
lradius 70.7068
lwrist 4.30663
lhand -30.2808 -27.7773
lfingers 7.12502
lthumb -3.58859 2.17223
rfemur 13.2487 -9.36704 18.2582
rtibia 9.11403
rfoot -20.3634 -8.53687
rtoes -3.86465
lfemur -19.3638 17.9219 -0.183779
ltibia 68.5762
lfoot -6.74793 1.63023
ltoes -7.24564
1040
root 37.2981 16.6218 -1.32162 -57.3321 77.2685 -55.3724
lowerback 12.8893 1.97388 6.91239
upperback 7.01209 3.78081 3.215
thorax 0.387875 2.18176 -0.975521
lowerneck -19.307 1.83415 3.49006
upperneck 27.4824 2.75618 -2.81708
head 12.3954 1.35876 -1.18565
rclavicle -2.33386e-014 -2.83889e-014
rhumerus -39.2486 18.315 -82.465
rradius 75.3868
rwrist -9.68188
rhand -14.506 -38.8833
rfingers 7.12502
rthumb 11.6412 -68.5399
lclavicle -2.33386e-014 -2.83889e-014
lhumerus -39.9171 -15.6337 90.6874
lradius 68.8758
lwrist 2.97232
lhand -28.3972 -22.7601
lfingers 7.12502
lthumb -1.76949 7.21233
rfemur 13.5301 -9.61444 19.0805
rtibia 8.85929
rfoot -20.482 -8.32983
rtoes -3.53472
lfemur -21.5335 18.439 0.499339
ltibia 68.3271
lfoot -7.83363 2.60546
ltoes -7.26254
1041
root 37.3714 16.6229 -1.32042 -54.4301 77.8696 -52.6949
lowerback 13.2666 2.14618 5.96533
upperback 7.10271 3.92982 3.11454
thorax 0.226102 2.23018 -0.592185
lowerneck -19.423 1.74222 3.44583
upperneck 27.2351 2.70298 -3.11002
head 12.3224 1.28518 -1.29692
rclavicle 2.02512e-015 3.36443e-014
rhumerus -37.3501 17.9896 -82.1549
rradius 75.5018
rwrist -9.38239
rhand -14.3572 -38.7912
rfingers 7.12502
rthumb 11.7847 -68.4396
lclavicle 2.02512e-015 3.36443e-014
lhumerus -41.2942 -13.69 90.7135
lradius 67.1272
lwrist 2.72687
lhand -27.6958 -20.1695
lfingers 7.12502
lthumb -1.09213 9.80744
rfemur 13.6277 -9.23547 18.14
rtibia 8.60327
rfoot -20.738 -8.3667
rtoes -2.53103
lfemur -23.4661 18.9002 -0.766639
ltibia 67.3772
lfoot -8.98496 4.04543
ltoes -6.98575
1042
root 37.4563 16.6193 -1.32087 -52.5881 78.1452 -51.0083
lowerback 13.4817 2.25871 5.45942
upperback 7.30753 4.03712 3.09068
thorax 0.295987 2.27985 -0.353829
lowerneck -19.2769 1.74902 3.46955
upperneck 26.63 2.77231 -3.46096
head 12.0629 1.26536 -1.41988
rclavicle 2.6165e-014 1.7344e-014
rhumerus -35.4124 17.5858 -81.9106
rradius 75.6037
rwrist -9.04341
rhand -14.3904 -38.5844
rfingers 7.12502
rthumb 11.7526 -68.2347
lclavicle 2.6165e-014 1.7344e-014
lhumerus -42.6189 -11.9276 90.5873
lradius 65.5755
lwrist 3.08896
lhand -26.6409 -17.9789
lfingers 7.12502
lthumb -0.073296 12.0008
rfemur 13.8987 -9.07247 17.5518
rtibia 8.30957
rfoot -20.8644 -8.31599
rtoes -1.89293
lfemur -25.1029 19.3384 -1.53279
ltibia 66.1355
lfoot -9.99612 5.20436
ltoes -6.94803
1043
root 37.5382 16.6152 -1.31703 -51.9331 78.0544 -50.4902
lowerback 13.7519 2.33114 5.35081
upperback 7.52153 4.14704 3.15472
thorax 0.369586 2.34214 -0.246519
lowerneck -19.0865 1.85569 3.69242
upperneck 25.9976 2.9574 -3.94673
head 11.7985 1.3021 -1.60694
rclavicle -5.3324e-014 -6.26172e-015
rhumerus -33.4806 17.1359 -81.7529
rradius 75.7123
rwrist -8.5297
rhand -14.579 -38.2393
rfingers 7.12502
rthumb 11.5707 -67.8999
lclavicle -5.3324e-014 -6.26172e-015
lhumerus -44.0275 -10.3768 90.3864
lradius 64.1818
lwrist 4.00289
lhand -25.432 -16.1543
lfingers 7.12502
lthumb 1.09432 13.8226
rfemur 14.2098 -8.83398 17.543
rtibia 7.90801
rfoot -20.9193 -8.48189
rtoes -2.25185
lfemur -26.6371 19.8354 -1.72695
ltibia 64.7254
lfoot -10.7654 6.22334
ltoes -7.70562
1044
root 37.6152 16.6161 -1.30922 -51.3526 77.8752 -50.1009
lowerback 14.122 2.41103 5.20662
upperback 7.6598 4.27042 3.23946
thorax 0.305923 2.40402 -0.109565
lowerneck -18.9653 1.83082 3.72998
upperneck 25.4637 2.97782 -4.30277
head 11.5768 1.26509 -1.73871
rclavicle 4.67144e-015 5.96354e-016
rhumerus -31.646 16.7982 -81.6869
rradius 75.9471
rwrist -8.07793
rhand -14.8479 -37.9597
rfingers 7.12502
rthumb 11.3115 -67.6347
lclavicle 4.67144e-015 5.96354e-016
lhumerus -45.7062 -9.02924 90.1918
lradius 63.0086
lwrist 5.18816
lhand -24.6427 -16.3878
lfingers 7.12502
lthumb 1.85665 13.5839
rfemur 14.4628 -8.42104 17.7455
rtibia 7.44079
rfoot -21.0437 -8.6845
rtoes -2.36992
lfemur -28.1361 20.2977 -1.77282
ltibia 63.0723
lfoot -11.3723 7.1938
ltoes -9.05006
1045
root 37.6976 16.6162 -1.30822 -50.5025 77.8002 -49.559
lowerback 14.3311 2.47741 5.01716
upperback 7.7868 4.35319 3.26458
thorax 0.315256 2.44487 0.00397448
lowerneck -18.8192 1.98193 4.04448
upperneck 24.9008 3.20373 -4.8208
head 11.3602 1.32831 -1.94384
rclavicle -3.42904e-014 -4.2043e-014
rhumerus -29.8313 16.5072 -81.6965
rradius 76.2517
rwrist -7.82515
rhand -15.3095 -37.7196
rfingers 7.12502
rthumb 10.8663 -67.4184
lclavicle -3.42904e-014 -4.2043e-014
lhumerus -47.5176 -7.993 90.0478
lradius 62.0217
lwrist 6.46917
lhand -24.023 -16.7738
lfingers 7.12502
lthumb 2.45517 13.1918
rfemur 14.609 -8.41456 17.6525
rtibia 7.02182
rfoot -20.9628 -8.70393
rtoes -3.77232
lfemur -29.5703 20.5449 -2.00624
ltibia 61.0417
lfoot -11.7903 8.03557
ltoes -11.0804
